<svg width="116" height="20" viewBox="0 0 116 20" fill="none" xmlns="http://www.w3.org/2000/svg">
<path d="M8.80114 5.90909L8.28125 8.97727H0.0227273L0.542614 5.90909H8.80114ZM2.78409 2.77273H6.9517L4.94034 14.8835C4.90057 15.1392 4.90625 15.3466 4.95739 15.5057C5.0142 15.6591 5.11648 15.7699 5.2642 15.8381C5.41761 15.9006 5.60511 15.9318 5.8267 15.9318C5.98011 15.9318 6.15057 15.9148 6.33807 15.8807C6.52557 15.8466 6.66761 15.821 6.7642 15.804L6.90057 18.8125C6.67898 18.875 6.38068 18.946 6.00568 19.0256C5.63636 19.1108 5.20455 19.1648 4.71023 19.1875C3.71023 19.2273 2.88352 19.1108 2.23011 18.8381C1.58239 18.5597 1.125 18.1278 0.857955 17.5426C0.596591 16.9574 0.545455 16.2244 0.704545 15.3438L2.78409 2.77273ZM8.74574 19L10.9276 5.90909H15.0952L12.9134 19H8.74574ZM13.3054 4.375C12.7145 4.375 12.2344 4.17898 11.8651 3.78693C11.4957 3.39489 11.3509 2.92614 11.4304 2.38068C11.5099 1.82955 11.7884 1.3608 12.2656 0.974431C12.7429 0.588068 13.2741 0.394886 13.8594 0.394886C14.4503 0.394886 14.9247 0.588068 15.2827 0.974431C15.6463 1.3608 15.7884 1.82955 15.7088 2.38068C15.6406 2.92614 15.3679 3.39489 14.8906 3.78693C14.419 4.17898 13.8906 4.375 13.3054 4.375ZM15.5916 19L17.7734 5.90909H21.7365L21.3445 8.3125H21.4893C21.8871 7.51705 22.4496 6.8892 23.1768 6.42898C23.9041 5.96875 24.7166 5.73864 25.6143 5.73864C26.5178 5.73864 27.2536 5.97159 27.8217 6.4375C28.3956 6.90341 28.7053 7.52841 28.7507 8.3125H28.8871C29.2621 7.53409 29.8416 6.91193 30.6257 6.44602C31.4155 5.97443 32.2962 5.73864 33.2678 5.73864C34.495 5.73864 35.4297 6.13636 36.0717 6.93182C36.7195 7.72159 36.9268 8.80682 36.6939 10.1875L35.228 19H31.0689L32.3984 11.142C32.4893 10.4886 32.3928 9.99148 32.1087 9.65057C31.8303 9.30398 31.424 9.13068 30.8899 9.13068C30.3161 9.13068 29.8359 9.31534 29.4496 9.68466C29.0689 10.054 28.8331 10.554 28.7422 11.1847L27.4212 19H23.407L24.745 11.0994C24.8303 10.4915 24.7365 10.0114 24.4638 9.65909C24.1967 9.30682 23.7905 9.13068 23.245 9.13068C22.8871 9.13068 22.5547 9.21875 22.2479 9.39489C21.9411 9.56534 21.6825 9.80966 21.4723 10.1278C21.2678 10.446 21.1342 10.821 21.0717 11.2528L19.7592 19H15.5916ZM43.87 19.2472C42.5007 19.2472 41.3643 18.9773 40.4609 18.4375C39.5632 17.892 38.9325 17.1165 38.5689 16.1108C38.2053 15.0994 38.1399 13.8977 38.3729 12.5057C38.6001 11.1534 39.0632 9.97159 39.7621 8.96023C40.4666 7.94318 41.353 7.15341 42.4212 6.59091C43.4893 6.02273 44.6797 5.73864 45.9922 5.73864C46.924 5.73864 47.7507 5.88352 48.4723 6.17329C49.1939 6.46307 49.7905 6.89489 50.2621 7.46875C50.7337 8.03693 51.0547 8.7358 51.2251 9.56534C51.3956 10.3949 51.3899 11.3466 51.2081 12.4205L51.0462 13.4602H39.6768L40.0604 11.0398H47.5604C47.6286 10.5966 47.5916 10.2017 47.4496 9.85511C47.3075 9.50852 47.0774 9.23864 46.7592 9.04545C46.4467 8.84659 46.0632 8.74716 45.6087 8.74716C45.1484 8.74716 44.7166 8.85511 44.3132 9.07102C43.9155 9.28125 43.5774 9.56534 43.299 9.9233C43.0206 10.2812 42.8388 10.6847 42.7536 11.1335L42.3018 13.6136C42.2109 14.1648 42.2365 14.6364 42.3786 15.0284C42.5206 15.4205 42.7649 15.7216 43.1115 15.9318C43.4581 16.1364 43.9041 16.2386 44.4496 16.2386C44.8132 16.2386 45.1541 16.1903 45.4723 16.0938C45.7905 15.9915 46.0746 15.8409 46.3246 15.642C46.5803 15.4375 46.7876 15.1903 46.9467 14.9006L50.7479 15.0114C50.4411 15.8693 49.9666 16.6165 49.3246 17.2528C48.6825 17.8835 47.8984 18.375 46.9723 18.7273C46.0518 19.0739 45.0178 19.2472 43.87 19.2472Z" fill="white"/>
<path d="M52.2457 19L55.1435 1.54545H62.3537C63.6605 1.54545 64.7486 1.7983 65.6179 2.30398C66.4872 2.80966 67.1037 3.51705 67.4673 4.42614C67.831 5.33523 67.9134 6.3892 67.7145 7.58807C67.5213 8.7983 67.0866 9.85227 66.4105 10.75C65.7401 11.6477 64.8764 12.3437 63.8196 12.8381C62.7628 13.3324 61.5611 13.5795 60.2145 13.5795H55.7741L56.3281 10.2557H59.9929C60.6349 10.2557 61.1889 10.1449 61.6548 9.9233C62.1264 9.7017 62.5043 9.39205 62.7884 8.99432C63.0724 8.59659 63.2599 8.12784 63.3509 7.58807C63.4361 7.04829 63.402 6.58239 63.2486 6.19034C63.0952 5.79261 62.8196 5.4858 62.4219 5.26989C62.0298 5.05398 61.5185 4.94602 60.8878 4.94602H58.8082L56.4645 19H52.2457ZM71.0661 19.2216C70.2365 19.2216 69.5206 19.0824 68.9183 18.804C68.3217 18.5199 67.8842 18.0909 67.6058 17.517C67.3331 16.9432 67.2678 16.2273 67.4098 15.3693C67.5348 14.642 67.7649 14.0312 68.1001 13.5369C68.4411 13.0369 68.8587 12.6307 69.353 12.3182C69.853 12.0057 70.4098 11.767 71.0234 11.6023C71.6371 11.4375 72.2791 11.3267 72.9496 11.2699C73.6996 11.2017 74.3075 11.1278 74.7734 11.0483C75.245 10.9687 75.5973 10.858 75.8303 10.7159C76.0632 10.5682 76.2053 10.3636 76.2564 10.1023V10.0597C76.3246 9.62216 76.2308 9.28409 75.9751 9.04545C75.7195 8.80682 75.3359 8.6875 74.8246 8.6875C74.2791 8.6875 73.8132 8.80682 73.4268 9.04545C73.0405 9.28409 72.7706 9.61364 72.6172 10.0341L68.799 9.89773C69.0376 9.10227 69.4467 8.39205 70.0263 7.76705C70.6058 7.13636 71.3416 6.64205 72.2337 6.28409C73.1314 5.92045 74.1683 5.73864 75.3445 5.73864C76.174 5.73864 76.924 5.83807 77.5945 6.03693C78.2649 6.23011 78.8303 6.5142 79.2905 6.8892C79.7564 7.25852 80.0888 7.71307 80.2876 8.25284C80.4865 8.79261 80.5291 9.40909 80.4155 10.1023L78.924 19H75.0036L75.3104 17.1761H75.2081C74.9013 17.6193 74.5405 17.9943 74.1257 18.3011C73.7166 18.608 73.2564 18.8381 72.745 18.9915C72.2337 19.1449 71.674 19.2216 71.0661 19.2216ZM72.8217 16.4943C73.2592 16.4943 73.674 16.4034 74.0661 16.2216C74.4581 16.0398 74.7876 15.7898 75.0547 15.4716C75.3274 15.1477 75.5007 14.7727 75.5746 14.3466L75.7706 13.1023C75.6513 13.1648 75.5007 13.2216 75.3189 13.2727C75.1371 13.3239 74.9439 13.3722 74.7393 13.4176C74.5348 13.4574 74.3246 13.4972 74.1087 13.5369C73.8984 13.571 73.6967 13.6023 73.5036 13.6307C73.0945 13.6932 72.7393 13.7898 72.4382 13.9205C72.1371 14.0511 71.8956 14.2216 71.7138 14.4318C71.5376 14.6364 71.4297 14.8807 71.3899 15.1648C71.3217 15.5909 71.4212 15.9205 71.6882 16.1534C71.9553 16.3807 72.3331 16.4943 72.8217 16.4943ZM83.9183 19L82.6911 5.90909H86.8757L87.2422 14.2955H87.353L90.6428 5.90909H94.7251L95.2706 14.2358H95.3814L98.4922 5.90909H102.677L97.0774 19H92.62L91.8359 11.3722H91.6911L88.3842 19H83.9183ZM105.824 19.2216C104.994 19.2216 104.278 19.0824 103.676 18.804C103.08 18.5199 102.642 18.0909 102.364 17.517C102.091 16.9432 102.026 16.2273 102.168 15.3693C102.293 14.642 102.523 14.0312 102.858 13.5369C103.199 13.0369 103.616 12.6307 104.111 12.3182C104.611 12.0057 105.168 11.767 105.781 11.6023C106.395 11.4375 107.037 11.3267 107.707 11.2699C108.457 11.2017 109.065 11.1278 109.531 11.0483C110.003 10.9687 110.355 10.858 110.588 10.7159C110.821 10.5682 110.963 10.3636 111.014 10.1023V10.0597C111.082 9.62216 110.989 9.28409 110.733 9.04545C110.477 8.80682 110.094 8.6875 109.582 8.6875C109.037 8.6875 108.571 8.80682 108.185 9.04545C107.798 9.28409 107.528 9.61364 107.375 10.0341L103.557 9.89773C103.795 9.10227 104.205 8.39205 104.784 7.76705C105.364 7.13636 106.099 6.64205 106.991 6.28409C107.889 5.92045 108.926 5.73864 110.102 5.73864C110.932 5.73864 111.682 5.83807 112.352 6.03693C113.023 6.23011 113.588 6.5142 114.048 6.8892C114.514 7.25852 114.847 7.71307 115.045 8.25284C115.244 8.79261 115.287 9.40909 115.173 10.1023L113.682 19H109.761L110.068 17.1761H109.966C109.659 17.6193 109.298 17.9943 108.884 18.3011C108.474 18.608 108.014 18.8381 107.503 18.9915C106.991 19.1449 106.432 19.2216 105.824 19.2216ZM107.58 16.4943C108.017 16.4943 108.432 16.4034 108.824 16.2216C109.216 16.0398 109.545 15.7898 109.812 15.4716C110.085 15.1477 110.259 14.7727 110.332 14.3466L110.528 13.1023C110.409 13.1648 110.259 13.2216 110.077 13.2727C109.895 13.3239 109.702 13.3722 109.497 13.4176C109.293 13.4574 109.082 13.4972 108.866 13.5369C108.656 13.571 108.455 13.6023 108.261 13.6307C107.852 13.6932 107.497 13.7898 107.196 13.9205C106.895 14.0511 106.653 14.2216 106.472 14.4318C106.295 14.6364 106.188 14.8807 106.148 15.1648C106.08 15.5909 106.179 15.9205 106.446 16.1534C106.713 16.3807 107.091 16.4943 107.58 16.4943Z" fill="#9CE800"/>
</svg>
